<svg xmlns="http://www.w3.org/2000/svg" viewBox="0 0 400 240" width="100%" height="100%">
  <defs>
    <linearGradient id="cardGrad" x1="0%" y1="0%" x2="100%" y2="100%">
      <stop offset="0%" stop-color="#0F0F0F"/>
      <stop offset="50%" stop-color="#181818"/>
      <stop offset="100%" stop-color="#222222"/>
    </linearGradient>
    <linearGradient id="pillGrad" x1="0%" y1="0%" x2="100%" y2="0%">
      <stop offset="0%" stop-color="#2A2A2A"/>
      <stop offset="100%" stop-color="#1A1A1A"/>
    </linearGradient>
    <filter id="shadow" x="-5%" y="-5%" width="110%" height="115%" filterUnits="userSpaceOnUse">
      <feDropShadow dx="0" dy="8" stdDeviation="12" flood-color="#000000" flood-opacity="0.6"/>
    </filter>
  </defs>

  <rect x="8" y="8" width="384" height="224" rx="20" ry="20" fill="url(#cardGrad)" stroke="#383838" stroke-width="1.5" filter="url(#shadow)"/>
  
  <circle cx="340" cy="50" r="70" fill="#FFFFFF" opacity="0.03" />

  <!-- Badge Pill -->
  <rect x="28" y="28" width="115" height="26" rx="13" fill="url(#pillGrad)" stroke="#444444" stroke-width="1"/>
  <text x="85" y="45" font-family="-apple-system, BlinkMacSystemFont, 'Segoe UI', Roboto, sans-serif" font-size="11" font-weight="700" fill="#E5E5E5" text-anchor="middle" letter-spacing="1">ACTIVITIES</text>

  <!-- Icon (Award) -->
  <g transform="translate(328, 30)" stroke="#FFFFFF" stroke-width="2" fill="none" stroke-linecap="round" stroke-linejoin="round">
    <circle cx="12" cy="8" r="7"/>
    <polyline points="8.21 13.89 7 23 12 20 17 23 15.79 13.88"/>
  </g>

  <!-- Main Title -->
  <text x="28" y="105" font-family="-apple-system, BlinkMacSystemFont, 'Segoe UI', Roboto, sans-serif" font-size="25" font-weight="800" fill="#FFFFFF" letter-spacing="-0.5">기타 활동</text>
  <text x="28" y="132" font-family="-apple-system, BlinkMacSystemFont, 'Segoe UI', Roboto, sans-serif" font-size="14" font-weight="600" fill="#D4D4D4">자격증 · 실무 · 대외활동</text>

  <!-- Description / Tags -->
  <text x="28" y="172" font-family="-apple-system, BlinkMacSystemFont, 'Segoe UI', Roboto, sans-serif" font-size="12" fill="#A3A3A3">ADsP(데이터분석준전문가) · TOEIC 955</text>
  <text x="28" y="192" font-family="-apple-system, BlinkMacSystemFont, 'Segoe UI', Roboto, sans-serif" font-size="12" fill="#888888">마케팅전략팀 실무 · 수출입은행 봉사단(1등)</text>

  <!-- Footer link indicator -->
  <g transform="translate(340, 185)" fill="none" stroke="#FFFFFF" stroke-width="2" stroke-linecap="round" stroke-linejoin="round">
    <circle cx="10" cy="10" r="14" stroke="#383838" fill="#141414"/>
    <path d="M7 10h6m-3-3 3 3-3 3"/>
  </g>
</svg>
